<mxfile host="app.diagrams.net" modified="2023-04-14T13:02:33.199Z" agent="Mozilla/5.0 (Windows NT 10.0; Win64; x64) AppleWebKit/537.36 (KHTML, like Gecko) Chrome/112.0.0.0 Safari/537.36 Edg/112.0.1722.39" version="21.1.7" etag="HHcIRiPIks-pqPD7k7Zb" type="github">
  <diagram name="第 1 页" id="gSKQCowuIv7pCQ2kXJFT">
    <mxGraphModel>
      <root>
        <mxCell id="0" />
        <mxCell id="1" parent="0" />
        <mxCell id="2" value="Model" style="whiteSpace=wrap;strokeWidth=2;" vertex="1" parent="1">
          <mxGeometry width="58" height="33" as="geometry" />
        </mxCell>
        <mxCell id="3" value="ViewModel" style="whiteSpace=wrap;strokeWidth=2;" vertex="1" parent="1">
          <mxGeometry x="108" width="92" height="33" as="geometry" />
        </mxCell>
        <mxCell id="4" value="View" style="whiteSpace=wrap;strokeWidth=2;" vertex="1" parent="1">
          <mxGeometry x="251" width="51" height="33" as="geometry" />
        </mxCell>
        <mxCell id="5" value="" style="curved=1;startArrow=none;endArrow=block;exitX=1.003071094381398;exitY=0.3430911320217639;entryX=0.0019361247187075408;entryY=0.30936957541019006;" edge="1" parent="1" source="2" target="3">
          <mxGeometry relative="1" as="geometry">
            <Array as="points">
              <mxPoint x="83" y="7" />
            </Array>
          </mxGeometry>
        </mxCell>
        <mxCell id="6" value="" style="curved=1;startArrow=none;endArrow=block;exitX=1.007184070089589;exitY=0.30936957541019006;entryX=-0.00664834415211397;entryY=0.35304764506268593;" edge="1" parent="1" source="3" target="4">
          <mxGeometry relative="1" as="geometry">
            <Array as="points">
              <mxPoint x="226" y="7" />
            </Array>
          </mxGeometry>
        </mxCell>
        <mxCell id="7" value="" style="curved=1;startArrow=none;endArrow=block;exitX=-0.00664834415211397;exitY=0.659073613297281;entryX=1.007184070089589;entryY=0.7027516829497767;" edge="1" parent="1" source="4" target="3">
          <mxGeometry relative="1" as="geometry">
            <Array as="points">
              <mxPoint x="226" y="27" />
            </Array>
          </mxGeometry>
        </mxCell>
        <mxCell id="8" value="" style="curved=1;startArrow=none;endArrow=block;exitX=0.0019361247187075408;exitY=0.7027516829497767;entryX=1.003071094381398;entryY=0.6690301263382029;" edge="1" parent="1" source="3" target="2">
          <mxGeometry relative="1" as="geometry">
            <Array as="points">
              <mxPoint x="83" y="27" />
            </Array>
          </mxGeometry>
        </mxCell>
      </root>
    </mxGraphModel>
  </diagram>
</mxfile>
